<svg width="28" height="28" viewBox="0 0 28 28" fill="none" xmlns="http://www.w3.org/2000/svg">
<path fill-rule="evenodd" clip-rule="evenodd" d="M6.01024 6.01017C6.27278 5.74771 6.62881 5.60027 7.00004 5.60027C7.37127 5.60027 7.7273 5.74771 7.98984 6.01017L14 12.0204L20.0102 6.01017C20.1394 5.87645 20.2939 5.7698 20.4647 5.69643C20.6355 5.62305 20.8192 5.58443 21.0051 5.58282C21.191 5.5812 21.3753 5.61662 21.5474 5.68702C21.7194 5.75741 21.8757 5.86136 22.0072 5.99281C22.1386 6.12426 22.2426 6.28058 22.313 6.45263C22.3834 6.62469 22.4188 6.80904 22.4172 6.99493C22.4156 7.18082 22.377 7.36453 22.3036 7.53533C22.2302 7.70614 22.1236 7.86062 21.9898 7.98977L15.9796 14L21.9898 20.0102C22.2449 20.2742 22.386 20.6279 22.3828 20.9949C22.3796 21.362 22.2324 21.7131 21.9728 21.9727C21.7132 22.2323 21.3621 22.3795 20.995 22.3827C20.6279 22.3859 20.2743 22.2448 20.0102 21.9898L14 15.9796L7.98984 21.9898C7.7258 22.2448 7.37216 22.3859 7.00508 22.3827C6.63801 22.3795 6.28687 22.2323 6.0273 21.9727C5.76773 21.7131 5.62049 21.362 5.6173 20.9949C5.61411 20.6279 5.75522 20.2742 6.01024 20.0102L12.0204 14L6.01024 7.98977C5.74778 7.72723 5.60034 7.3712 5.60034 6.99997C5.60034 6.62874 5.74778 6.27271 6.01024 6.01017V6.01017Z" fill="#143F6B"/>
</svg>
