<svg width="122" height="35" viewBox="0 0 122 35" fill="none" xmlns="http://www.w3.org/2000/svg">
<path d="M115.086 6.43806L105.34 6.27236L104.504 7.34935L94.4808 7.38504L94.3414 7.71036L94.116 8.00848L93.6777 7.99039L93.5605 7.55989L93.8685 6.91046L93.4071 6.37117L91.4433 6.81038L90.1471 10.3514L87.2028 15.7162L84.4395 19.7169L84.2369 22.6882L84.92 24.7028L84.8702 25.4338L85.1806 26.0379L88.0184 26.5333L88.6893 24.8584L90.2162 23.9518L90.7617 24.1162L91.7733 22.1715L93.3423 21.0775L95.3291 18.5819C95.5355 18.1332 95.9502 17.2075 95.9579 17.0944C95.9657 16.9812 95.6674 14.7649 95.5174 13.6709L96.2698 12.5195L97.0295 12.5509L99.5699 10.1017L101.17 9.41101L102.105 9.4496L102.503 9.63155L102.355 10.0748L103.027 10.1025L105.408 11.2885L106.188 11.0133L106.232 10.3766L106.983 10.1002L109.565 8.76422L111.8 8.64362L114.094 8.95111L114.795 8.98005L114.673 8.19462L114.494 7.80888L114.716 7.55792L115.61 6.90902L115.086 6.43806Z" stroke="#143F6B" stroke-width="0.603638"/>
<path d="M4.0083 16.5094L4.00865 15.9734L5.29822 15.6554L9.69436 5.53139L10.4332 5.53183L14.5991 15.6609L15.8158 15.9804L15.8155 16.5164L11.7011 16.514L11.7014 15.9779L12.962 15.6744L11.8193 12.8632L7.44413 12.8606L6.35579 15.6705L7.65945 15.9755L7.65911 16.5116L4.0083 16.5094ZM7.64731 12.3103L11.6168 12.3126L9.59186 7.22635L7.64731 12.3103ZM17.8512 5.6521L21.7048 5.65437C22.69 5.65495 23.5543 5.74722 24.2979 5.93116C25.0415 6.10545 25.7029 6.40041 26.2821 6.81606C26.871 7.22205 27.3149 7.78732 27.6138 8.51186C27.9224 9.23641 28.0764 10.1154 28.0757 11.1488C28.0751 12.1823 27.92 13.0562 27.6105 13.7708C27.3009 14.4853 26.8418 15.0404 26.2331 15.436C25.6244 15.822 24.9336 16.1016 24.1609 16.275C23.3978 16.4388 22.4899 16.5203 21.4371 16.5197L17.8443 16.5176L17.8446 15.9816L19.2791 15.6492L19.2849 6.53667L17.8509 6.18813L17.8512 5.6521ZM20.8001 15.9109L21.5099 15.9113C23.1808 15.9123 24.4125 15.5556 25.2049 14.8414C25.9973 14.1272 26.3941 12.9008 26.3952 11.1623C26.3963 9.41418 26.0253 8.16323 25.2821 7.40945C24.5389 6.64601 23.3657 6.26382 21.7624 6.26287L20.8062 6.26231L20.8001 15.9109ZM30.2588 5.65942L34.6629 5.66201L34.6626 6.19804L33.2137 6.5304L33.2078 15.6719L34.6563 15.9915L34.656 16.5275L30.2518 16.5249L30.2522 15.9889L31.6866 15.6565L31.6925 6.54399L30.2585 6.19545L30.2588 5.65942ZM47.5117 16.5351L44.5852 16.5334L41.01 11.6925L40.1987 11.692L40.1961 15.6615L41.6736 15.9956L41.6733 16.5316L37.2691 16.529L37.2695 15.993L38.675 15.6606L38.6808 6.53362L37.2757 6.19959L37.2761 5.66356L41.6368 5.66613C43.1724 5.66703 44.2733 5.89948 44.9394 6.36347C45.6056 6.82745 45.9383 7.57133 45.9376 8.5951C45.937 9.61887 45.6371 10.3817 45.038 10.8836C44.4388 11.3758 43.6515 11.6216 42.676 11.621L45.9331 15.6794L47.512 15.9991L47.5117 16.5351ZM40.2022 6.24477L40.199 11.127L41.8216 11.128C42.6426 11.1284 43.2511 10.9356 43.6474 10.5495C44.0533 10.1635 44.2565 9.54544 44.257 8.69552C44.2576 7.83594 44.06 7.21287 43.6643 6.82631C43.2685 6.43975 42.6553 6.24622 41.8247 6.24573L40.2022 6.24477ZM57.428 11.1082C57.4291 9.418 57.1256 8.14293 56.5177 7.28299C55.9195 6.42306 55.0505 5.99276 53.9108 5.99209C52.7808 5.99142 51.921 6.43036 51.3312 7.30891C50.7415 8.18746 50.4461 9.45251 50.4451 11.1041C50.444 12.7556 50.7281 14.0258 51.2974 14.9147C51.8763 15.794 52.7308 16.2339 53.8608 16.2346C54.9908 16.2353 55.8652 15.8012 56.4839 14.9323C57.1122 14.0634 57.4269 12.7887 57.428 11.1082ZM48.7646 11.1176C48.7657 9.36943 49.2495 7.98376 50.2159 6.96056C51.1824 5.9277 52.4238 5.41172 53.9402 5.41261C55.4662 5.41351 56.7021 5.94061 57.6479 6.99391C58.6034 8.04722 59.0806 9.42863 59.0795 11.1381C59.0784 12.8476 58.6043 14.2237 57.6571 15.2662C56.7099 16.2991 55.4589 16.815 53.9039 16.8141C52.3489 16.8132 51.1034 16.3006 50.1672 15.2763C49.231 14.2423 48.7634 12.856 48.7646 11.1176ZM61.2566 5.6777L65.6607 5.68029L65.6604 6.21632L64.2259 6.54869L64.2199 15.9075L67.9287 15.9097L68.495 13.8094L69.2484 13.8098L69.2466 16.5479L61.2496 16.5432L61.2499 16.0072L62.6989 15.6748L62.7047 6.56228L61.2562 6.21373L61.2566 5.6777Z" fill="#143F6B"/>
<path d="M72.0968 12.5088L72.6328 12.5088L73.0385 11.4078L75.8201 11.4077L75.8199 15.6525L74.3857 15.9713L74.3857 16.5073L78.7898 16.5072L78.7898 15.9711L77.3411 15.638L77.3414 6.52545L78.7756 6.17772L78.7756 5.64169L70.7931 5.64188L70.793 8.23511L71.5464 8.23509L72.1114 6.2648L75.8202 6.26471L75.8201 10.7558L73.0385 10.7558L72.6329 9.52444L72.0969 9.52445L72.0968 12.5088Z" fill="#143F6B"/>
<path d="M6.04964 27.5351C5.46612 27.5351 4.88261 27.354 4.2991 26.9919L4.29913 25.7469L4.73677 25.7469L5.0612 26.9692C5.34792 27.1503 5.66986 27.2408 6.02701 27.2408C6.29362 27.2408 6.56526 27.1805 6.84193 27.0597C6.98781 26.9943 7.10854 26.8987 7.20412 26.773C7.2997 26.6472 7.35252 26.4988 7.36258 26.3278C7.3475 25.9254 7.13875 25.5909 6.73633 25.3243C6.58543 25.2287 6.3817 25.1231 6.12516 25.0074C5.86862 24.8866 5.70262 24.8087 5.62716 24.7735C4.71668 24.4013 4.26145 23.8932 4.26147 23.2493C4.26148 22.8469 4.41743 22.4948 4.72932 22.1929C5.0412 21.8911 5.48639 21.7402 6.06488 21.7402C6.36167 21.7402 6.66851 21.788 6.98542 21.8835C7.30233 21.9741 7.56642 22.1199 7.77769 22.3211L7.77766 23.4228L7.39284 23.4228L7.04578 22.2759C6.76408 22.125 6.46226 22.0495 6.14032 22.0495C5.81838 22.0496 5.54926 22.1275 5.33295 22.2835C5.11665 22.4344 5.00849 22.6457 5.00848 22.9173C5.00847 23.2342 5.14177 23.4882 5.40837 23.6794C5.63473 23.8454 5.87367 23.9862 6.12518 24.1019C6.37669 24.2126 6.53263 24.283 6.593 24.3132C7.61414 24.7458 8.1247 25.3041 8.12468 25.9882C8.12468 26.3303 8.00897 26.6221 7.77757 26.8635C7.35501 27.3112 6.77904 27.5351 6.04964 27.5351ZM11.9844 21.8079L13.901 21.8079L13.901 22.0871L13.2294 22.2531L11.177 24.1848L13.5236 27.0218L14.4139 27.1878L14.4139 27.467L12.8294 27.467L10.5054 24.6149L10.5054 27.0219L11.2599 27.1879L11.2599 27.4671L8.96609 27.4671L8.96609 27.1879L9.7131 27.0144L9.71322 22.2683L8.96622 22.0872L8.96623 21.808L11.2601 21.808L11.26 22.0871L10.5055 22.2607L10.5054 24.464L12.573 22.2305L11.9844 22.0871L11.9844 21.8079ZM15.1708 27.467L15.1708 27.1878L15.8423 27.0218L18.1287 21.7474L18.5136 21.7474L20.6865 27.0217L21.3203 27.1876L21.3203 27.4668L19.1774 27.4669L19.1774 27.1877L19.8339 27.0292L19.2378 25.5654L16.9591 25.5655L16.3931 27.0293L17.0722 27.1877L17.0722 27.4669L15.1708 27.467ZM17.0647 25.2787L19.1322 25.2787L18.0759 22.6303L17.0647 25.2787ZM22.663 27.4668L22.663 27.1876L23.3949 27.014L23.395 22.1321L22.0142 22.1322L21.7199 23.2338L21.3275 23.2338L21.3275 21.8077L26.2774 21.8076L26.2773 23.2337L25.885 23.2337L25.5907 22.1321L24.1873 22.1321L24.1872 27.0216L24.9568 27.1876L24.9568 27.4667L22.663 27.4668ZM27.1815 21.8076L31.339 21.8075L31.339 23.1581L30.9466 23.1581L30.6524 22.1319L28.7208 22.132L28.7207 24.3881L30.177 24.3881L30.3807 23.7316L30.6599 23.7316L30.6599 25.2935L30.3807 25.2935L30.177 24.7201L28.7207 24.7201L28.7206 27.1422L30.7881 27.1421L31.0824 26.1235L31.4823 26.1235L31.4823 27.4666L27.1813 27.4667L27.1813 27.1875L27.9284 27.0139L27.9285 22.2678L27.1815 22.0868L27.1815 21.8076ZM32.4648 21.8074L34.7058 21.8074C36.1093 21.8074 36.811 22.2676 36.8109 23.1882C36.8109 23.5604 36.6927 23.8572 36.4563 24.0785C36.2199 24.2999 35.8426 24.4483 35.3245 24.5237C36.416 24.6193 36.9618 25.0997 36.9618 25.9649C36.9618 26.3673 36.8234 26.7044 36.5468 26.976C36.3455 27.1772 36.1041 27.3105 35.8224 27.3759C35.5407 27.4363 35.1257 27.4665 34.5774 27.4665L32.4646 27.4666L32.4647 27.1874L33.189 27.0214L33.1891 22.2602L32.4648 22.0866L32.4648 21.8074ZM33.9737 27.1647L34.5698 27.1647C35.1081 27.1647 35.4979 27.0691 35.7394 26.8779C35.9809 26.6868 36.1016 26.3774 36.1016 25.9498C36.1016 25.5222 35.9834 25.2104 35.747 25.0142C35.5156 24.813 35.1459 24.7124 34.6378 24.7124L33.9738 24.7124L33.9737 27.1647ZM33.9738 24.3955L34.5775 24.3955C35.503 24.3955 35.9658 23.9981 35.9659 23.2033C35.9659 22.7505 35.8099 22.4512 35.4981 22.3054C35.2315 22.1746 34.8617 22.1092 34.3889 22.1092L33.9739 22.1092L33.9738 24.3955ZM42.2328 24.6368C42.2328 23.7565 42.0744 23.0925 41.7575 22.6448C41.4456 22.1971 40.9929 21.9732 40.3993 21.9732C39.8108 21.9733 39.3631 22.2022 39.0562 22.6599C38.7494 23.1177 38.5959 23.7767 38.5959 24.6368C38.5959 25.497 38.7442 26.1585 39.041 26.6213C39.3428 27.079 39.788 27.3079 40.3766 27.3079C40.9651 27.3079 41.4204 27.0815 41.7423 26.6288C42.0693 26.176 42.2328 25.512 42.2328 24.6368ZM37.7206 24.6444C37.7206 23.7339 37.9722 23.0121 38.4752 22.4788C38.9783 21.9406 39.6247 21.6714 40.4144 21.6714C41.2092 21.6714 41.8531 21.9455 42.346 22.4938C42.844 23.0421 43.093 23.7615 43.093 24.6518C43.093 25.5422 42.8465 26.259 42.3535 26.8023C41.8605 27.3406 41.2091 27.6097 40.3992 27.6097C39.5893 27.6097 38.9404 27.3432 38.4525 26.8099C37.9645 26.2717 37.7206 25.5499 37.7206 24.6444ZM43.7242 27.4663L43.7242 27.1871L44.3958 27.0211L46.6822 21.7467L47.067 21.7467L49.24 27.021L49.8738 27.1869L49.8738 27.4661L47.7309 27.4662L47.7309 27.187L48.3873 27.0285L47.7913 25.5647L45.5125 25.5648L44.9466 27.0286L45.6257 27.187L45.6257 27.4662L43.7242 27.4663ZM45.6182 25.278L47.6856 25.278L46.6293 22.6296L45.6182 25.278ZM56.2651 27.466L54.7409 27.466L52.8772 24.9459L52.4547 24.9459L52.4546 27.0133L53.2243 27.1869L53.2243 27.466L50.9304 27.4661L50.9304 27.1869L51.6624 27.0134L51.6625 22.2597L50.9306 22.0862L50.9306 21.807L53.2018 21.8069C54.0016 21.8069 54.575 21.9276 54.9221 22.1691C55.2692 22.4105 55.4427 22.7979 55.4427 23.3311C55.4427 23.8643 55.2868 24.2617 54.9749 24.5233C54.663 24.7798 54.253 24.9081 53.745 24.9081L55.4426 27.0208L56.2651 27.1868L56.2651 27.466ZM52.4548 22.1088L52.4547 24.6516L53.2998 24.6516C53.7274 24.6516 54.0443 24.551 54.2505 24.3497C54.4618 24.1485 54.5674 23.8266 54.5675 23.3839C54.5675 22.9362 54.4644 22.6118 54.2581 22.4105C54.0519 22.2093 53.7325 22.1087 53.2998 22.1088L52.4548 22.1088ZM57.3192 21.8068L59.3263 21.8068C59.8394 21.8068 60.2896 21.8546 60.6769 21.9501C61.0642 22.0407 61.4088 22.1941 61.7106 22.4104C62.0175 22.6216 62.2489 22.9159 62.4048 23.2932C62.5658 23.6704 62.6462 24.1282 62.6462 24.6664C62.6462 25.2047 62.5657 25.6599 62.4047 26.0322C62.2437 26.4044 62.0048 26.6937 61.6879 26.8999C61.371 27.1011 61.0113 27.247 60.6089 27.3376C60.2115 27.4231 59.7386 27.4659 59.1903 27.4659L57.319 27.4659L57.319 27.1868L58.066 27.0132L58.0662 22.2671L57.3192 22.086L57.3192 21.8068ZM58.8583 27.149L59.228 27.149C60.0983 27.149 60.7397 26.9628 61.1522 26.5906C61.5647 26.2183 61.7709 25.5795 61.7709 24.674C61.771 23.7635 61.5773 23.1121 61.19 22.7197C60.8027 22.3224 60.1915 22.1237 59.3564 22.1237L58.8584 22.1237L58.8583 27.149ZM63.7815 21.8067L66.0753 21.8066L66.0753 22.0858L65.3207 22.2594L65.3206 27.0206L66.0752 27.1865L66.0751 27.4657L63.7813 27.4658L63.7813 27.1866L64.5283 27.013L64.5285 22.2669L63.7815 22.0859L63.7815 21.8067ZM71.458 21.8065L73.3142 21.8064L73.3142 22.0856L72.5748 22.2743L72.5746 27.4656L72.0465 27.4656L68.5153 22.2895L68.5152 27.0205L69.2546 27.1865L69.2546 27.4657L67.4362 27.4657L67.4362 27.1865L68.1379 27.0205L68.138 22.2819L67.4363 22.0858L67.4363 21.8066L69.1189 21.8065L72.1974 26.2734L72.1975 22.2818L71.458 22.0857L71.458 21.8065ZM77.6394 25.0207L79.9709 25.0207L79.9709 25.2998L79.2239 25.4734L79.2239 27.1938C78.9673 27.3095 78.6378 27.4 78.2354 27.4654C77.833 27.5308 77.4632 27.5635 77.1262 27.5635C76.2459 27.5636 75.5668 27.3045 75.0889 26.7864C74.6111 26.2683 74.3722 25.559 74.3722 24.6586C74.3722 23.7582 74.6061 23.0388 75.074 22.5006C75.5418 21.9573 76.2033 21.6856 77.0584 21.6856C77.4055 21.6856 77.7652 21.7334 78.1374 21.829C78.5097 21.9195 78.8165 22.0779 79.058 22.3043L79.058 23.5795L78.6656 23.5795L78.2959 22.327C78.0746 22.0905 77.657 21.9723 77.0433 21.9724C76.4297 21.9724 75.9769 22.2013 75.6851 22.659C75.3934 23.1168 75.2475 23.7632 75.2475 24.5982C75.2474 26.3739 75.8686 27.2618 77.1111 27.2617C77.5035 27.2617 77.9436 27.2013 78.4316 27.0806L78.4316 25.4734L77.6394 25.2999L77.6394 25.0207Z" fill="#143F6B"/>
</svg>
